<svg width="203" height="127" viewBox="0 0 203 127" fill="none" xmlns="http://www.w3.org/2000/svg">
<path d="M0.45813 28.3542L27.9236 20.2097L26.8679 34.0284L0.45813 28.3542Z" fill="#E65100"/>
<path d="M32.655 20.2097L43.1326 29.6693L48.016 61.8805L29.7073 63.6352L32.655 20.2097Z" fill="#E65100"/>
<path d="M53.2456 61.2406L60.1839 60.579L62.1311 51.0274L58.2626 46.8993L51.2145 47.8526L53.2456 61.2406Z" fill="#E65100"/>
<path d="M30.9859 66.8188L48.11 88.3766L101.409 99.0069L56.2329 64.4018L30.9859 66.8188Z" fill="#E65100"/>
<path d="M51.5628 93.7462L104.862 104.377L82.3414 113.661L51.5628 93.7462Z" fill="#E65100"/>
<path d="M66.0671 64.4018L72.852 33.6973L117.356 84.7984L111.244 99.0069L66.0671 64.4018Z" fill="#E65100"/>
<path d="M77.3721 31.1398L175.785 33.0124L121.874 82.2409L77.3721 31.1398Z" fill="#E65100"/>
<path d="M62.8665 45.6066L62.6709 10.177L76.0622 28.6669L71.5734 28.5818L66.7357 49.7347L62.8665 45.6066Z" fill="#E65100"/>
<path d="M66.5503 8.25879L133.121 0.270386L123.138 27.5732L79.9409 26.7487L66.5503 8.25879Z" fill="#E65100"/>
<path d="M88.8639 115.438L111.385 106.154L202.542 127L88.8639 115.438Z" fill="#E65100"/>
</svg>
